ffmpeg started on 2025-05-28 at 10:33:44
Report written to "D:\Convert\FFMetrics\reports\ssim_report-6.txt"
Log level: 32
Command line:
ffmpeg -hide_banner -nostdin -i "G:\\\xc0\xed\xe8\xec\xe5\\\xce\xed\xe3\xee\xe8\xed\xe3\xe8\\!_36_\xce\xf1\xe5\xed\xfc_2024\\JamClub\\MF \xcf\xf0\xe8\xe7\xf0\xe0\xea\\\xd2\xc2-1\\[JAMCLUB] MF Ghost - 08 (1080p)_HEVC.mkv" -i "G:\\\xc0\xed\xe8\xec\xe5\\\xce\xed\xe3\xee\xe8\xed\xe3\xe8\\!_36_\xce\xf1\xe5\xed\xfc_2024\\JamClub\\MF \xcf\xf0\xe8\xe7\xf0\xe0\xea\\\xd2\xc2-1\\[JAMCLUB] MF Ghost - 08 (1080p).mp4" -lavfi "[0:v]settb=AVTB,setpts=PTS-STARTPTS,format=pix_fmts=yuv420p10,fps=24000/1001,scale=1920:1080:flags=bicubic[main];[1:v]settb=AVTB,setpts=PTS-STARTPTS,format=pix_fmts=yuv420p,fps=24000/1001,scale=1920:1080:flags=bicubic[ref];[main][ref]ssim=eof_action=endall:stats_file='D\\:/Convert/FFMetrics/logs/ssim_logfile-6.txt'" -f null -
Input #0, matroska,webm, from 'G:\Аниме\Онгоинги\!_36_Осень_2024\JamClub\MF Призрак\ТВ-1\[JAMCLUB] MF Ghost - 08 (1080p)_HEVC.mkv':
  Metadata:
    COMPATIBLE_BRANDS: isomiso2avc1mp41
    MAJOR_BRAND     : isom
    MINOR_VERSION   : 512
    ENCODER         : Lavf61.7.100
  Duration: 00:24:02.33, start: -0.021000, bitrate: 2368 kb/s
  Stream #0:0: Video: hevc (Main 10), yuv420p10le(tv, bt709, progressive), 1920x1080 [SAR 1:1 DAR 16:9], 23.98 fps, 23.98 tbr, 1k tbn (default)
      Metadata:
        HANDLER_NAME    : VideoHandler
        VENDOR_ID       : [0][0][0][0]
        ENCODER         : Lavc61.19.100 libx265
        BPS             : 2168976
        DURATION        : 00:24:02.190708333
        NUMBER_OF_FRAMES: 34578
        NUMBER_OF_BYTES : 391009495
        _STATISTICS_WRITING_APP: mkvpropedit v66.0.0 ('Josie') 64-bit
        _STATISTICS_WRITING_DATE_UTC: 2025-05-27 09:38:35
        _STATISTICS_TAGS: BPS DURATION NUMBER_OF_FRAMES NUMBER_OF_BYTES
  Stream #0:1: Audio: aac (LC), 48000 Hz, stereo, fltp (default)
      Metadata:
        HANDLER_NAME    : SoundHandler
        VENDOR_ID       : [0][0][0][0]
        ENCODER         : Lavc61.19.100 aac
        BPS             : 195309
        DURATION        : 00:24:02.304000000
        NUMBER_OF_FRAMES: 67609
        NUMBER_OF_BYTES : 35211900
        _STATISTICS_WRITING_APP: mkvpropedit v66.0.0 ('Josie') 64-bit
        _STATISTICS_WRITING_DATE_UTC: 2025-05-27 09:38:35
        _STATISTICS_TAGS: BPS DURATION NUMBER_OF_FRAMES NUMBER_OF_BYTES
Input #1, mov,mp4,m4a,3gp,3g2,mj2, from 'G:\Аниме\Онгоинги\!_36_Осень_2024\JamClub\MF Призрак\ТВ-1\[JAMCLUB] MF Ghost - 08 (1080p).mp4':
  Metadata:
    major_brand     : isom
    minor_version   : 512
    compatible_brands: isomiso2avc1mp41
    encoder         : Lavf60.10.100
  Duration: 00:24:02.30, start: 0.000000, bitrate: 5252 kb/s
  Stream #1:0[0x1](und): Video: h264 (High) (avc1 / 0x31637661), yuv420p(tv, bt709, progressive), 1920x1080 [SAR 1:1 DAR 16:9], 4992 kb/s, 23.98 fps, 23.98 tbr, 24k tbn (default)
      Metadata:
        handler_name    : VideoHandler
        vendor_id       : [0][0][0][0]
        encoder         : Lavc60.23.100 h264_nvenc
  Stream #1:1[0x2](und): Audio: aac (LC) (mp4a / 0x6134706D), 48000 Hz, stereo, fltp, 256 kb/s (default)
      Metadata:
        handler_name    : SoundHandler
        vendor_id       : [0][0][0][0]
Stream mapping:
  Stream #0:0 (hevc) -> settb:default
  Stream #1:0 (h264) -> settb:default
  ssim:default -> Stream #0:0 (wrapped_avframe)
  Stream #0:1 -> #0:1 (aac (native) -> pcm_s16le (native))
Output #0, null, to 'pipe:':
  Metadata:
    COMPATIBLE_BRANDS: isomiso2avc1mp41
    MAJOR_BRAND     : isom
    MINOR_VERSION   : 512
    encoder         : Lavf61.7.100
  Stream #0:0: Video: wrapped_avframe, yuv420p10le(tv, bt709, progressive), 1920x1080 [SAR 1:1 DAR 16:9], q=2-31, 200 kb/s, 23.98 fps, 23.98 tbn
      Metadata:
        encoder         : Lavc61.19.100 wrapped_avframe
  Stream #0:1: Audio: pcm_s16le, 48000 Hz, stereo, s16, 1536 kb/s (default)
      Metadata:
        HANDLER_NAME    : SoundHandler
        VENDOR_ID       : [0][0][0][0]
        _STATISTICS_TAGS: BPS DURATION NUMBER_OF_FRAMES NUMBER_OF_BYTES
        BPS             : 195309
        DURATION        : 00:24:02.304000000
        NUMBER_OF_FRAMES: 67609
        NUMBER_OF_BYTES : 35211900
        _STATISTICS_WRITING_APP: mkvpropedit v66.0.0 ('Josie') 64-bit
        _STATISTICS_WRITING_DATE_UTC: 2025-05-27 09:38:35
        encoder         : Lavc61.19.100 pcm_s16le
frame=  118 fps=0.0 q=-0.0 size=N/A time=00:00:04.92 bitrate=N/A speed=9.48x    frame=  292 fps=285 q=-0.0 size=N/A time=00:00:12.17 bitrate=N/A speed=11.9x    frame=  503 fps=325 q=-0.0 size=N/A time=00:00:20.97 bitrate=N/A speed=13.5x    frame=  713 fps=347 q=-0.0 size=N/A time=00:00:29.73 bitrate=N/A speed=14.5x    frame=  881 fps=341 q=-0.0 size=N/A time=00:00:36.74 bitrate=N/A speed=14.2x    frame= 1040 fps=337 q=-0.0 size=N/A time=00:00:43.37 bitrate=N/A speed=  14x    frame= 1235 fps=342 q=-0.0 size=N/A time=00:00:51.50 bitrate=N/A speed=14.3x    frame= 1421 fps=345 q=-0.0 size=N/A time=00:00:59.26 bitrate=N/A speed=14.4x    frame= 1613 fps=348 q=-0.0 size=N/A time=00:01:07.27 bitrate=N/A speed=14.5x    frame= 1711 fps=332 q=-0.0 size=N/A time=00:01:11.36 bitrate=N/A speed=13.9x    frame= 1903 fps=336 q=-0.0 size=N/A time=00:01:19.37 bitrate=N/A speed=  14x    frame= 2067 fps=334 q=-0.0 size=N/A time=00:01:26.21 bitrate=N/A speed=13.9x    frame= 2256 fps=337 q=-0.0 size=N/A time=00:01:34.09 bitrate=N/A speed=  14x    frame= 2405 fps=333 q=-0.0 size=N/A time=00:01:40.30 bitrate=N/A speed=13.9x    frame= 2554 fps=330 q=-0.0 size=N/A time=00:01:46.52 bitrate=N/A speed=13.8x    frame= 2733 fps=331 q=-0.0 size=N/A time=00:01:53.98 bitrate=N/A speed=13.8x    frame= 2883 fps=329 q=-0.0 size=N/A time=00:02:00.24 bitrate=N/A speed=13.7x    frame= 3056 fps=329 q=-0.0 size=N/A time=00:02:07.46 bitrate=N/A speed=13.7x    frame= 3178 fps=325 q=-0.0 size=N/A time=00:02:12.54 bitrate=N/A speed=13.5x    frame= 3333 fps=323 q=-0.0 size=N/A time=00:02:19.01 bitrate=N/A speed=13.5x    frame= 3479 fps=321 q=-0.0 size=N/A time=00:02:25.10 bitrate=N/A speed=13.4x    frame= 3639 fps=321 q=-0.0 size=N/A time=00:02:31.77 bitrate=N/A speed=13.4x    frame= 3821 fps=322 q=-0.0 size=N/A time=00:02:39.36 bitrate=N/A speed=13.4x    frame= 4056 fps=328 q=-0.0 size=N/A time=00:02:49.16 bitrate=N/A speed=13.7x    frame= 4235 fps=329 q=-0.0 size=N/A time=00:02:56.63 bitrate=N/A speed=13.7x    frame= 4430 fps=330 q=-0.0 size=N/A time=00:03:04.76 bitrate=N/A speed=13.8x    frame= 4654 fps=334 q=-0.0 size=N/A time=00:03:14.11 bitrate=N/A speed=13.9x    frame= 4873 fps=337 q=-0.0 size=N/A time=00:03:23.24 bitrate=N/A speed=14.1x    frame= 5086 fps=340 q=-0.0 size=N/A time=00:03:32.12 bitrate=N/A speed=14.2x    frame= 5313 fps=344 q=-0.0 size=N/A time=00:03:41.59 bitrate=N/A speed=14.3x    frame= 5527 fps=346 q=-0.0 size=N/A time=00:03:50.52 bitrate=N/A speed=14.4x    frame= 5725 fps=347 q=-0.0 size=N/A time=00:03:58.78 bitrate=N/A speed=14.5x    frame= 5949 fps=350 q=-0.0 size=N/A time=00:04:08.12 bitrate=N/A speed=14.6x    frame= 6130 fps=350 q=-0.0 size=N/A time=00:04:15.67 bitrate=N/A speed=14.6x    frame= 6307 fps=349 q=-0.0 size=N/A time=00:04:23.05 bitrate=N/A speed=14.6x    frame= 6493 fps=350 q=-0.0 size=N/A time=00:04:30.81 bitrate=N/A speed=14.6x    frame= 6707 fps=351 q=-0.0 size=N/A time=00:04:39.73 bitrate=N/A speed=14.7x    frame= 6959 fps=355 q=-0.0 size=N/A time=00:04:50.24 bitrate=N/A speed=14.8x    frame= 7172 fps=357 q=-0.0 size=N/A time=00:04:59.13 bitrate=N/A speed=14.9x    frame= 7385 fps=358 q=-0.0 size=N/A time=00:05:08.01 bitrate=N/A speed=14.9x    frame= 7572 fps=358 q=-0.0 size=N/A time=00:05:15.81 bitrate=N/A speed=14.9x    frame= 7754 fps=358 q=-0.0 size=N/A time=00:05:23.40 bitrate=N/A speed=14.9x    frame= 7951 fps=359 q=-0.0 size=N/A time=00:05:31.62 bitrate=N/A speed=  15x    frame= 8157 fps=359 q=-0.0 size=N/A time=00:05:40.21 bitrate=N/A speed=  15x    frame= 8386 fps=361 q=-0.0 size=N/A time=00:05:49.76 bitrate=N/A speed=15.1x    frame= 8589 fps=362 q=-0.0 size=N/A time=00:05:58.23 bitrate=N/A speed=15.1x    frame= 8811 fps=364 q=-0.0 size=N/A time=00:06:07.49 bitrate=N/A speed=15.2x    frame= 9037 fps=365 q=-0.0 size=N/A time=00:06:16.91 bitrate=N/A speed=15.2x    frame= 9231 fps=365 q=-0.0 size=N/A time=00:06:25.00 bitrate=N/A speed=15.2x    frame= 9423 fps=366 q=-0.0 size=N/A time=00:06:33.05 bitrate=N/A speed=15.3x    frame= 9593 fps=365 q=-0.0 size=N/A time=00:06:40.10 bitrate=N/A speed=15.2x    frame= 9789 fps=365 q=-0.0 size=N/A time=00:06:48.28 bitrate=N/A speed=15.2x    frame=10010 fps=366 q=-0.0 size=N/A time=00:06:57.50 bitrate=N/A speed=15.3x    frame=10223 fps=367 q=-0.0 size=N/A time=00:07:06.38 bitrate=N/A speed=15.3x    frame=10437 fps=368 q=-0.0 size=N/A time=00:07:15.30 bitrate=N/A speed=15.3x    frame=10608 fps=367 q=-0.0 size=N/A time=00:07:22.44 bitrate=N/A speed=15.3x    frame=10813 fps=368 q=-0.0 size=N/A time=00:07:30.99 bitrate=N/A speed=15.3x    frame=11001 fps=368 q=-0.0 size=N/A time=00:07:38.83 bitrate=N/A speed=15.3x    frame=11207 fps=368 q=-0.0 size=N/A time=00:07:47.42 bitrate=N/A speed=15.4x    frame=11430 fps=370 q=-0.0 size=N/A time=00:07:56.72 bitrate=N/A speed=15.4x    frame=11631 fps=370 q=-0.0 size=N/A time=00:08:05.10 bitrate=N/A speed=15.4x    frame=11868 fps=371 q=-0.0 size=N/A time=00:08:14.99 bitrate=N/A speed=15.5x    frame=12056 fps=371 q=-0.0 size=N/A time=00:08:22.83 bitrate=N/A speed=15.5x    frame=12274 fps=372 q=-0.0 size=N/A time=00:08:31.92 bitrate=N/A speed=15.5x    frame=12501 fps=373 q=-0.0 size=N/A time=00:08:41.39 bitrate=N/A speed=15.6x    frame=12671 fps=372 q=-0.0 size=N/A time=00:08:48.48 bitrate=N/A speed=15.5x    frame=12851 fps=372 q=-0.0 size=N/A time=00:08:55.99 bitrate=N/A speed=15.5x    frame=13017 fps=371 q=-0.0 size=N/A time=00:09:02.91 bitrate=N/A speed=15.5x    frame=13158 fps=370 q=-0.0 size=N/A time=00:09:08.79 bitrate=N/A speed=15.4x    frame=13324 fps=369 q=-0.0 size=N/A time=00:09:15.72 bitrate=N/A speed=15.4x    frame=13512 fps=369 q=-0.0 size=N/A time=00:09:23.56 bitrate=N/A speed=15.4x    frame=13733 fps=370 q=-0.0 size=N/A time=00:09:32.78 bitrate=N/A speed=15.4x    frame=13945 fps=371 q=-0.0 size=N/A time=00:09:41.62 bitrate=N/A speed=15.5x    frame=14144 fps=371 q=-0.0 size=N/A time=00:09:49.92 bitrate=N/A speed=15.5x    frame=14390 fps=372 q=-0.0 size=N/A time=00:10:00.18 bitrate=N/A speed=15.5x    frame=14648 fps=374 q=-0.0 size=N/A time=00:10:10.94 bitrate=N/A speed=15.6x    frame=14834 fps=374 q=-0.0 size=N/A time=00:10:18.70 bitrate=N/A speed=15.6x    frame=15047 fps=374 q=-0.0 size=N/A time=00:10:27.58 bitrate=N/A speed=15.6x    frame=15274 fps=375 q=-0.0 size=N/A time=00:10:37.05 bitrate=N/A speed=15.6x    frame=15528 fps=376 q=-0.0 size=N/A time=00:10:47.64 bitrate=N/A speed=15.7x    frame=15802 fps=378 q=-0.0 size=N/A time=00:10:59.07 bitrate=N/A speed=15.8x    frame=16052 fps=380 q=-0.0 size=N/A time=00:11:09.50 bitrate=N/A speed=15.8x    frame=16290 fps=381 q=-0.0 size=N/A time=00:11:19.42 bitrate=N/A speed=15.9x    frame=16555 fps=382 q=-0.0 size=N/A time=00:11:30.48 bitrate=N/A speed=15.9x    frame=16812 fps=384 q=-0.0 size=N/A time=00:11:41.20 bitrate=N/A speed=  16x    frame=17059 fps=385 q=-0.0 size=N/A time=00:11:51.50 bitrate=N/A speed=  16x    frame=17291 fps=385 q=-0.0 size=N/A time=00:12:01.17 bitrate=N/A speed=16.1x    frame=17555 fps=387 q=-0.0 size=N/A time=00:12:12.18 bitrate=N/A speed=16.1x    frame=17807 fps=388 q=-0.0 size=N/A time=00:12:22.70 bitrate=N/A speed=16.2x    frame=18071 fps=389 q=-0.0 size=N/A time=00:12:33.71 bitrate=N/A speed=16.2x    frame=18284 fps=389 q=-0.0 size=N/A time=00:12:42.59 bitrate=N/A speed=16.2x    frame=18504 fps=390 q=-0.0 size=N/A time=00:12:51.77 bitrate=N/A speed=16.3x    frame=18705 fps=390 q=-0.0 size=N/A time=00:13:00.15 bitrate=N/A speed=16.3x    frame=18880 fps=389 q=-0.0 size=N/A time=00:13:07.45 bitrate=N/A speed=16.2x    frame=19044 fps=389 q=-0.0 size=N/A time=00:13:14.29 bitrate=N/A speed=16.2x    frame=19229 fps=388 q=-0.0 size=N/A time=00:13:22.00 bitrate=N/A speed=16.2x    frame=19403 fps=388 q=-0.0 size=N/A time=00:13:29.26 bitrate=N/A speed=16.2x    frame=19600 fps=388 q=-0.0 size=N/A time=00:13:37.48 bitrate=N/A speed=16.2x    frame=19778 fps=387 q=-0.0 size=N/A time=00:13:44.90 bitrate=N/A speed=16.2x    frame=19953 fps=387 q=-0.0 size=N/A time=00:13:52.20 bitrate=N/A speed=16.1x    frame=20162 fps=387 q=-0.0 size=N/A time=00:14:00.92 bitrate=N/A speed=16.1x    frame=20396 fps=388 q=-0.0 size=N/A time=00:14:10.68 bitrate=N/A speed=16.2x    frame=20641 fps=389 q=-0.0 size=N/A time=00:14:20.90 bitrate=N/A speed=16.2x    frame=20869 fps=389 q=-0.0 size=N/A time=00:14:30.41 bitrate=N/A speed=16.2x    frame=21132 fps=390 q=-0.0 size=N/A time=00:14:41.38 bitrate=N/A speed=16.3x    frame=21364 fps=391 q=-0.0 size=N/A time=00:14:51.05 bitrate=N/A speed=16.3x    frame=21611 fps=392 q=-0.0 size=N/A time=00:15:01.35 bitrate=N/A speed=16.3x    frame=21827 fps=392 q=-0.0 size=N/A time=00:15:10.36 bitrate=N/A speed=16.3x    frame=22070 fps=393 q=-0.0 size=N/A time=00:15:20.50 bitrate=N/A speed=16.4x    frame=22262 fps=392 q=-0.0 size=N/A time=00:15:28.51 bitrate=N/A speed=16.4x    frame=22478 fps=393 q=-0.0 size=N/A time=00:15:37.51 bitrate=N/A speed=16.4x    frame=22679 fps=393 q=-0.0 size=N/A time=00:15:45.90 bitrate=N/A speed=16.4x    frame=22885 fps=393 q=-0.0 size=N/A time=00:15:54.49 bitrate=N/A speed=16.4x    frame=23081 fps=393 q=-0.0 size=N/A time=00:16:02.67 bitrate=N/A speed=16.4x    frame=23292 fps=393 q=-0.0 size=N/A time=00:16:11.47 bitrate=N/A speed=16.4x    frame=23512 fps=393 q=-0.0 size=N/A time=00:16:20.64 bitrate=N/A speed=16.4x    frame=23712 fps=393 q=-0.0 size=N/A time=00:16:28.98 bitrate=N/A speed=16.4x    frame=23943 fps=393 q=-0.0 size=N/A time=00:16:38.62 bitrate=N/A speed=16.4x    frame=24182 fps=394 q=-0.0 size=N/A time=00:16:48.59 bitrate=N/A speed=16.4x    frame=24449 fps=395 q=-0.0 size=N/A time=00:16:59.72 bitrate=N/A speed=16.5x    frame=24672 fps=395 q=-0.0 size=N/A time=00:17:09.02 bitrate=N/A speed=16.5x    frame=24885 fps=396 q=-0.0 size=N/A time=00:17:17.91 bitrate=N/A speed=16.5x    frame=25132 fps=396 q=-0.0 size=N/A time=00:17:28.21 bitrate=N/A speed=16.5x    frame=25368 fps=397 q=-0.0 size=N/A time=00:17:38.05 bitrate=N/A speed=16.5x    frame=25602 fps=397 q=-0.0 size=N/A time=00:17:47.81 bitrate=N/A speed=16.6x    frame=25829 fps=398 q=-0.0 size=N/A time=00:17:57.28 bitrate=N/A speed=16.6x    frame=26043 fps=398 q=-0.0 size=N/A time=00:18:06.21 bitrate=N/A speed=16.6x    frame=26248 fps=398 q=-0.0 size=N/A time=00:18:14.76 bitrate=N/A speed=16.6x    frame=26455 fps=398 q=-0.0 size=N/A time=00:18:23.39 bitrate=N/A speed=16.6x    frame=26683 fps=398 q=-0.0 size=N/A time=00:18:32.90 bitrate=N/A speed=16.6x    frame=26883 fps=398 q=-0.0 size=N/A time=00:18:41.24 bitrate=N/A speed=16.6x    frame=27091 fps=398 q=-0.0 size=N/A time=00:18:49.92 bitrate=N/A speed=16.6x    frame=27328 fps=398 q=-0.0 size=N/A time=00:18:59.80 bitrate=N/A speed=16.6x    frame=27541 fps=398 q=-0.0 size=N/A time=00:19:08.68 bitrate=N/A speed=16.6x    frame=27772 fps=399 q=-0.0 size=N/A time=00:19:18.32 bitrate=N/A speed=16.6x    frame=27982 fps=399 q=-0.0 size=N/A time=00:19:27.08 bitrate=N/A speed=16.6x    frame=28165 fps=399 q=-0.0 size=N/A time=00:19:34.71 bitrate=N/A speed=16.6x    frame=28383 fps=399 q=-0.0 size=N/A time=00:19:43.80 bitrate=N/A speed=16.6x    frame=28546 fps=398 q=-0.0 size=N/A time=00:19:50.60 bitrate=N/A speed=16.6x    frame=28730 fps=398 q=-0.0 size=N/A time=00:19:58.28 bitrate=N/A speed=16.6x    frame=28892 fps=397 q=-0.0 size=N/A time=00:20:05.03 bitrate=N/A speed=16.6x    frame=29097 fps=397 q=-0.0 size=N/A time=00:20:13.58 bitrate=N/A speed=16.6x    frame=29332 fps=398 q=-0.0 size=N/A time=00:20:23.38 bitrate=N/A speed=16.6x    frame=29538 fps=398 q=-0.0 size=N/A time=00:20:31.98 bitrate=N/A speed=16.6x    frame=29798 fps=398 q=-0.0 size=N/A time=00:20:42.82 bitrate=N/A speed=16.6x    frame=30051 fps=399 q=-0.0 size=N/A time=00:20:53.37 bitrate=N/A speed=16.6x    frame=30266 fps=399 q=-0.0 size=N/A time=00:21:02.34 bitrate=N/A speed=16.6x    frame=30514 fps=400 q=-0.0 size=N/A time=00:21:12.68 bitrate=N/A speed=16.7x    frame=30785 fps=400 q=-0.0 size=N/A time=00:21:23.99 bitrate=N/A speed=16.7x    frame=30985 fps=400 q=-0.0 size=N/A time=00:21:32.33 bitrate=N/A speed=16.7x    frame=31178 fps=400 q=-0.0 size=N/A time=00:21:40.38 bitrate=N/A speed=16.7x    frame=31394 fps=400 q=-0.0 size=N/A time=00:21:49.39 bitrate=N/A speed=16.7x    frame=31664 fps=401 q=-0.0 size=N/A time=00:22:00.65 bitrate=N/A speed=16.7x    frame=31874 fps=401 q=-0.0 size=N/A time=00:22:09.41 bitrate=N/A speed=16.7x    frame=32089 fps=401 q=-0.0 size=N/A time=00:22:18.37 bitrate=N/A speed=16.7x    frame=32296 fps=401 q=-0.0 size=N/A time=00:22:27.01 bitrate=N/A speed=16.7x    frame=32493 fps=401 q=-0.0 size=N/A time=00:22:35.22 bitrate=N/A speed=16.7x    frame=32715 fps=401 q=-0.0 size=N/A time=00:22:44.48 bitrate=N/A speed=16.7x    frame=32927 fps=401 q=-0.0 size=N/A time=00:22:53.33 bitrate=N/A speed=16.7x    frame=33156 fps=402 q=-0.0 size=N/A time=00:23:02.88 bitrate=N/A speed=16.8x    frame=33376 fps=402 q=-0.0 size=N/A time=00:23:12.05 bitrate=N/A speed=16.8x    frame=33581 fps=402 q=-0.0 size=N/A time=00:23:20.60 bitrate=N/A speed=16.8x    frame=33806 fps=402 q=-0.0 size=N/A time=00:23:29.99 bitrate=N/A speed=16.8x    frame=34010 fps=402 q=-0.0 size=N/A time=00:23:38.50 bitrate=N/A speed=16.8x    frame=34238 fps=402 q=-0.0 size=N/A time=00:23:48.00 bitrate=N/A speed=16.8x    frame=34427 fps=402 q=-0.0 size=N/A time=00:23:55.89 bitrate=N/A speed=16.8x    [Parsed_ssim_10 @ 000001840f6c7a40] SSIM Y:0.993333 (21.760542) U:0.994563 (22.646760) V:0.994606 (22.680740) All:0.993750 (22.041236)
[out#0/null @ 000001840f311300] video:14858KiB audio:270436KiB subtitle:0KiB other streams:0KiB global headers:0KiB muxing overhead: unknown
frame=34578 fps=402 q=-0.0 Lsize=N/A time=00:24:02.19 bitrate=N/A speed=16.7x    
